<svg id="Group" xmlns="http://www.w3.org/2000/svg" viewBox="0 0 2204.86 2968.181">
  <g id="Group_2_Copy_3" data-name="Group 2 Copy 3">
    <path id="Fill_1" data-name="Fill 1" style="fill: #f8e71c;" d="M100.279,366.709,0,104.556,251.431,0,351.711,262.153Z" transform="translate(1569.396 2385.537)"/>
    <path id="Fill_4" data-name="Fill 4" style="fill: #007bff;" d="M0,117.919,460.522,0l113.1,480.159L113.1,598.08Z" transform="translate(609.799 2370.101)"/>
    <path id="Fill_7" data-name="Fill 7" style="fill: #f6f6f6;" d="M0,74.174,347.075,0l73.711,349.257L73.711,423.43Z" transform="matrix(0.995, 0.105, -0.105, 0.995, 192.26, 0)"/>
    <path id="Fill_7_Copy" data-name="Fill 7 Copy" style="fill: #f6f6f6;" d="M0,56.874,256.846,0l54.548,267.8L54.548,324.674Z" transform="matrix(0.995, 0.105, -0.105, 0.995, 339.228, 765.35)"/>
    <path id="Fill_10" data-name="Fill 10" style="fill: #f8e71c;" d="M0,489.973,161.55,0,631.483,168.439,469.933,658.412Z" transform="translate(0 1783.959)"/>
    <path id="Fill_14" data-name="Fill 14" style="fill: #ff0202;" d="M9.4,116.81,0,9.8,102.637,0l9.4,107.014Z" transform="translate(664.686 2242.747)"/>
    <path id="Fill_15" data-name="Fill 15" style="fill: #00bffe;" d="M0,22.349,32.117,388.125l202.023-19.284V0Z" transform="matrix(0.719, -0.695, 0.695, 0.719, 1486.987, 1687.375)"/>
    <path id="Fill_16" data-name="Fill 16" style="fill: #f6f6f6;" d="M41.125,175.32,0,42.879,127.024,0,168.15,132.441Z" transform="translate(1605.659 2043.824)"/>
    <path id="Fill_17" data-name="Fill 17" style="fill: #ff0202;" d="M0,111.16,36.423,0,143.037,37.975,106.613,149.136Z" transform="translate(394 1363)"/>
    <path id="Fill_17_Copy" data-name="Fill 17 Copy" style="fill: #ff0202;" d="M0,86.558,28.362,0l83.019,29.571L83.018,116.13Z" transform="matrix(0.407, -0.914, 0.914, 0.407, 1672, 781.751)"/>
    <path id="Fill_18" data-name="Fill 18" style="fill: #00bffe;" d="M13.833,43.816,0,14.423,28.191,0,42.024,29.393Z" transform="translate(605.057 1275.22)"/>
    <path id="Fill_19" data-name="Fill 19" style="fill: #ff0202;" d="M0,32.552,3.37,0,34.592,3.515,31.22,36.067Z" transform="translate(1428.146 1677.428)"/>
    <path id="Fill_20" data-name="Fill 20" style="fill: #f6f6f6;" d="M137.827,587.562,0,143.7,425.7,0,563.531,443.857Z" transform="translate(1641.329 861.947)"/>
    <path id="Fill_20_Copy" data-name="Fill 20 Copy" style="fill: #f6f6f6;" d="M86.164,367.318,0,89.837,266.13,0l86.164,277.48Z" transform="translate(1621 313)"/>
    <path id="Fill_20_Copy_2" data-name="Fill 20 Copy 2" style="fill: #f6f6f6;" d="M42.155,179.71,0,43.953,130.2,0,172.36,135.757Z" transform="matrix(0.719, 0.695, -0.695, 0.719, 524.931, 1070.033)"/>
    <path id="Fill_23" data-name="Fill 23" style="fill: #9192ff;" d="M0,72.46,25.381,0l69.5,26.464L69.5,98.924Z" transform="translate(832.355 2284.83)"/>
    <path id="Fill_24" data-name="Fill 24" style="fill: #4ee3c0;" d="M25.742,73.327,0,26.84,44.586,0,70.328,46.487Z" transform="translate(1593.35 2411.077)"/>
  </g>
</svg>
